<?xml version="1.0" encoding="utf-8"?>
<!-- Generator: Adobe Illustrator 21.0.1, SVG Export Plug-In . SVG Version: 6.00 Build 0)  -->
<svg version="1.1" id="Layer_1" xmlns="http://www.w3.org/2000/svg" xmlns:xlink="http://www.w3.org/1999/xlink" x="0px" y="0px"
	 viewBox="0 0 24 24" style="enable-background:new 0 0 24 24;" xml:space="preserve">
<path d="M12,2.5c2.1,1.8,3,3.9,3,6.6c0,2.6-0.9,5.8-1.8,9.5L13.1,19h-2.2C9.9,15.2,9,11.9,9,9.2C9,6.5,9.9,4.4,12,2.5z M12,0
	C8.5,2.5,7,5.5,7,9.2c0,3.3,1.1,7.3,2.4,11.8h5.3c1.2-4.7,2.3-8.6,2.3-11.8C17,5.4,15.6,2.5,12,0z M20.6,20.7L18,16
	c-0.2,0.7-0.3,1.4-0.5,2.1l1.8,3.2L17,19.9l-0.4,1.5l4,2.6c0.1-0.5,0.4-1.2,0.4-1.8C21,21.7,20.9,21.2,20.6,20.7z M3,22.2
	c0,0.5,0.2,1.2,0.4,1.8l4-2.6L7,19.9l-2.2,1.4l1.8-3.2C6.4,17.4,6.2,16.7,6,16l-2.6,4.8C3.2,21.2,3,21.7,3,22.2z M13.4,24h-2.9
	L10,22h4C14,22,13.4,24,13.4,24z M10.5,7.5v4l4-1.9L10.5,7.5z"/>
</svg>
